<svg xmlns="http://www.w3.org/2000/svg" width="1200" height="720" viewBox="0 0 1200 720">
  <rect width="1200" height="720" fill="#f5f0e8"/>
  <rect width="220" height="720" fill="#1c1917"/>
  <text x="24" y="48" fill="#fafaf9" font-family="Arial,sans-serif" font-size="14">Website Monitoring</text>
  <rect x="24" y="80" width="172" height="36" rx="8" fill="#292524"/>
  <text x="40" y="103" fill="#fafaf9" font-family="Arial,sans-serif" font-size="13">Dashboard</text>
  <text x="40" y="150" fill="#a8a29e" font-family="Arial,sans-serif" font-size="13">Manage Websites</text>
  <text x="40" y="178" fill="#a8a29e" font-family="Arial,sans-serif" font-size="13">Uptime records</text>
  <text x="40" y="206" fill="#a8a29e" font-family="Arial,sans-serif" font-size="13">Monitoring Logs</text>
  <text x="40" y="234" fill="#a8a29e" font-family="Arial,sans-serif" font-size="13">Settings / Telegram</text>
  <text x="260" y="56" fill="#78716c" font-family="Arial,sans-serif" font-size="12">OVERVIEW OF STATUS</text>
  <text x="260" y="100" fill="#1c1917" font-family="Georgia,serif" font-size="42">Dashboard</text>
  <rect x="260" y="130" width="900" height="48" rx="10" fill="#ccfbf1"/>
  <text x="280" y="158" fill="#0f766e" font-family="Arial,sans-serif" font-size="14">Auto monitoring is running - Telegram on DOWN / recovery / slow</text>
  <rect x="260" y="200" width="200" height="100" rx="12" fill="#ffffff" stroke="#e7e5e4"/>
  <text x="280" y="240" fill="#78716c" font-family="Arial,sans-serif" font-size="13">Total websites</text>
  <text x="280" y="280" fill="#1c1917" font-family="Arial,sans-serif" font-size="36">1</text>
  <rect x="480" y="200" width="200" height="100" rx="12" fill="#ffffff" stroke="#e7e5e4"/>
  <text x="500" y="240" fill="#78716c" font-family="Arial,sans-serif" font-size="13">UP</text>
  <text x="500" y="280" fill="#0d9488" font-family="Arial,sans-serif" font-size="36">1</text>
  <rect x="700" y="200" width="200" height="100" rx="12" fill="#ffffff" stroke="#e7e5e4"/>
  <text x="720" y="240" fill="#78716c" font-family="Arial,sans-serif" font-size="13">DOWN</text>
  <text x="720" y="280" fill="#dc2626" font-family="Arial,sans-serif" font-size="36">0</text>
  <rect x="260" y="320" width="900" height="360" rx="16" fill="#ffffff" stroke="#e7e5e4"/>
  <text x="280" y="360" fill="#1c1917" font-family="Arial,sans-serif" font-size="18">Recent alerts</text>
  <rect x="280" y="380" width="860" height="40" rx="6" fill="#f5f5f4"/>
  <text x="300" y="405" fill="#57534e" font-family="Arial,sans-serif" font-size="13">RECOVERY - web toilet - 2026-08-20</text>
</svg>
